<?xml version="1.0" encoding="iso-8859-1"?>
<!-- Uploaded to: SVG Repo, www.svgrepo.com, Generator: SVG Repo Mixer Tools -->
<!DOCTYPE svg PUBLIC "-//W3C//DTD SVG 1.1//EN" "http://www.w3.org/Graphics/SVG/1.1/DTD/svg11.dtd">
<svg fill="{{COLOR}}" xmlns="http://www.w3.org/2000/svg" xmlns:xlink="http://www.w3.org/1999/xlink" version="1.1" x="0px" y="0px" viewBox="0 0 100 100" enable-background="new 0 0 100 100" xml:space="preserve"><g><g><path fill="{{COLOR}}" d="M17.513,82.786l-0.097-0.085l-0.014-0.016c-0.022-0.021-0.044-0.045-0.065-0.066    c-0.022-0.022-0.044-0.044-0.066-0.067l0.002-0.002c-1.592-1.706-1.533-3.5-1.193-4.719c0.076-0.272,0.169-0.527,0.269-0.762    l-8.151,2.734c-0.128,0.145-0.409,0.54-0.439,1.259c-0.029,0.723,0.201,1.566,0.684,2.51c0.648,1.269,1.742,2.686,3.253,4.214    l0.405,0.409c1.482,1.491,2.864,2.579,4.105,3.236c0.941,0.497,1.79,0.739,2.519,0.724c0.725-0.016,1.129-0.289,1.277-0.414    l2.896-8.042c-0.238,0.096-0.499,0.183-0.775,0.254C20.918,84.262,19.166,84.294,17.513,82.786z"/></g><g><path fill="{{COLOR}}" d="M40.429,56.18c-0.175-0.731-0.266-1.441-0.272-2.128l-3.354,3.354c-0.123,2.159,0.714,4.259,1.504,5.728    c0.565,1.049,1.175,1.912,1.603,2.466l3.511-3.511c-0.44-0.567-1.083-1.469-1.687-2.588C41.126,58.369,40.687,57.253,40.429,56.18    z"/><path fill="{{COLOR}}" d="M44.301,52.308c-0.176-0.73-0.266-1.442-0.272-2.128l-3.354,3.354c-0.123,2.159,0.714,4.259,1.505,5.728    c0.565,1.049,1.175,1.911,1.602,2.466l3.511-3.511c-0.44-0.567-1.083-1.469-1.686-2.588    C44.998,54.498,44.558,53.381,44.301,52.308z"/><path fill="{{COLOR}}" d="M46.051,55.391c0.564,1.049,1.174,1.909,1.602,2.466l3.51-3.511c-0.44-0.568-1.083-1.469-1.686-2.589    c-0.608-1.131-1.047-2.247-1.305-3.32c-0.176-0.731-0.266-1.442-0.272-2.129l-3.354,3.354    C44.422,51.821,45.26,53.921,46.051,55.391z"/><path fill="{{COLOR}}" d="M49.922,51.519c0.564,1.049,1.174,1.91,1.602,2.466l4.277-4.279l-5.65-5.649l-1.733,1.734    C48.294,47.949,49.131,50.05,49.922,51.519z"/><path fill="{{COLOR}}" d="M32.687,63.922c-0.175-0.729-0.266-1.441-0.272-2.126L29.06,65.15c-0.122,2.158,0.715,4.257,1.505,5.725    c0.565,1.05,1.176,1.913,1.604,2.469l3.51-3.512c-0.441-0.567-1.083-1.47-1.687-2.589C33.383,66.111,32.944,64.995,32.687,63.922z    "/><path fill="{{COLOR}}" d="M36.558,60.051c-0.175-0.731-0.266-1.441-0.272-2.127l-3.354,3.354c-0.123,2.158,0.714,4.257,1.504,5.725    c0.566,1.05,1.176,1.913,1.604,2.47l3.51-3.513c-0.44-0.566-1.083-1.469-1.687-2.589C37.255,62.24,36.815,61.124,36.558,60.051z"/><path fill="{{COLOR}}" d="M24.943,71.665c-0.175-0.729-0.265-1.439-0.271-2.125l-3.354,3.354c-0.122,2.158,0.715,4.255,1.505,5.723    c0.566,1.051,1.176,1.913,1.604,2.47l3.511-3.512c-0.44-0.567-1.083-1.47-1.687-2.59C25.64,73.854,25.201,72.737,24.943,71.665z"/><path fill="{{COLOR}}" d="M28.815,67.794c-0.175-0.729-0.266-1.441-0.272-2.127l-3.354,3.355c-0.123,2.157,0.714,4.256,1.504,5.724    c0.566,1.051,1.177,1.913,1.604,2.469l3.511-3.512c-0.441-0.567-1.084-1.47-1.688-2.589    C29.511,69.983,29.072,68.865,28.815,67.794z"/><path fill="{{COLOR}}" d="M28.543,65.659c0-0.005,0-0.01,0-0.016l-3.353,3.353c0,0.006,0,0.011-0.001,0.018L28.543,65.659z"/><path fill="{{COLOR}}" d="M24.672,69.531c0-0.005,0-0.011,0-0.017l-3.352,3.354c0,0.006-0.001,0.012-0.001,0.018L24.672,69.531z"/><path fill="{{COLOR}}" d="M32.414,61.787c0-0.005,0-0.01,0-0.016l-3.352,3.354c0,0.006,0,0.011-0.001,0.017L32.414,61.787z"/><polygon fill="{{COLOR}}" points="36.286,57.915 36.286,57.9 32.933,61.254 32.932,61.269   "/><polygon fill="{{COLOR}}" points="47.899,46.299 47.899,46.286 44.547,49.639 44.546,49.652   "/><path fill="{{COLOR}}" d="M44.028,50.171c0-0.004,0-0.01,0-0.014l-3.353,3.352c0,0.006,0,0.011-0.001,0.015L44.028,50.171z"/><path fill="{{COLOR}}" d="M40.157,54.044c0-0.006,0-0.01,0-0.015l-3.352,3.353c0,0.005,0,0.01-0.001,0.016L40.157,54.044z"/><rect x="49.409" y="53.627" transform="matrix(-0.6139 -0.7894 0.7894 -0.6139 35.4625 129.5639)" fill="{{COLOR}}" width="0.011" height="4.966"/><rect x="27.576" y="75.463" fill="{{COLOR}}" width="4.966" height="0.007"/><rect x="45.539" y="57.498" transform="matrix(-0.5855 -0.8107 0.8107 -0.5855 23.5842 132.0208)" fill="{{COLOR}}" width="0.011" height="4.966"/><rect x="31.447" y="71.591" fill="{{COLOR}}" width="4.966" height="0.008"/><rect x="35.318" y="67.72" fill="{{COLOR}}" width="4.965" height="0.008"/><rect x="41.667" y="61.37" transform="matrix(-0.6 -0.8 0.8 -0.6 15.5934 135.5018)" fill="{{COLOR}}" width="0.01" height="4.966"/><rect x="23.705" y="79.335" fill="{{COLOR}}" width="4.964" height="0.007"/><path fill="{{COLOR}}" d="M55.618,49.915l-0.009-0.009l-5.666-5.665l-1.524,1.524c0,0.005-0.001,0.01-0.001,0.015l1.533-1.533    l5.658,5.659l-4.082,4.084c0.002,0.002,0.004,0.005,0.007,0.008l3.985-3.985L55.618,49.915z"/><polygon fill="{{COLOR}}" points="47.899,46.308 48.417,45.79 48.418,45.781 47.899,46.299   "/><rect x="51.343" y="53.913" fill="{{COLOR}}" width="0.005" height="0.51"/><rect x="47.471" y="57.785" fill="{{COLOR}}" width="0.006" height="0.509"/><polygon fill="{{COLOR}}" points="44.546,49.662 44.546,49.652 44.028,50.171 44.028,50.18   "/><polygon fill="{{COLOR}}" points="40.674,53.534 40.675,53.524 40.157,54.044 40.157,54.052   "/><rect x="43.6" y="61.655" fill="{{COLOR}}" width="0.006" height="0.51"/><rect x="39.729" y="65.527" fill="{{COLOR}}" width="0.006" height="0.51"/><polygon fill="{{COLOR}}" points="36.803,57.405 36.804,57.397 36.286,57.915 36.286,57.924   "/><polygon fill="{{COLOR}}" points="32.932,61.278 32.932,61.269 32.414,61.787 32.414,61.796   "/><rect x="35.606" y="69.651" fill="{{COLOR}}" width="0.51" height="0.007"/><rect x="31.735" y="73.522" fill="{{COLOR}}" width="0.51" height="0.007"/><polygon fill="{{COLOR}}" points="29.06,65.15 29.061,65.142 28.543,65.659 28.543,65.667   "/><rect x="28.116" y="77.143" fill="{{COLOR}}" width="0.007" height="0.51"/><polygon fill="{{COLOR}}" points="25.189,69.022 25.189,69.014 24.672,69.531 24.672,69.54   "/><polygon fill="{{COLOR}}" points="21.317,72.895 21.318,72.886 20.8,73.402 20.8,73.411   "/><rect x="24.244" y="81.014" fill="{{COLOR}}" width="0.006" height="0.51"/><path fill="{{COLOR}}" d="M21.097,75.536c-0.175-0.729-0.265-1.438-0.272-2.125l-3.862,3.863c0,0-1.629,2.481,0.867,4.976    c2.496,2.497,4.574,0.884,4.574,0.884l1.686-1.688c-0.44-0.566-1.083-1.468-1.688-2.589    C21.794,77.726,21.354,76.608,21.097,75.536z"/></g><g><rect x="64.659" y="23.331" transform="matrix(-0.7071 -0.7071 0.7071 -0.7071 112.5042 94.6345)" fill="{{COLOR}}" width="22.386" height="1.372"/></g><g><polygon fill="{{COLOR}}" points="51.749,8.804 37.08,23.473 36.475,29.119 70.749,63.393 75.93,63.255 91.221,47.966     91.655,42.458 57.396,8.198   "/></g></g></svg>