<?xml version="1.0" encoding="UTF-8" standalone="no"?>
<!DOCTYPE svg PUBLIC "-//W3C//DTD SVG 1.1//EN"
 "http://www.w3.org/Graphics/SVG/1.1/DTD/svg11.dtd">
<!-- Generated by graphviz version 5.0.0 (20220707.1540)
 -->
<!-- Title: dependencies Pages: 1 -->
<svg width="3780pt" height="247pt"
 viewBox="0.00 0.00 3780.00 246.80" xmlns="http://www.w3.org/2000/svg" xmlns:xlink="http://www.w3.org/1999/xlink">
<g id="graph0" class="graph" transform="scale(1 1) rotate(0) translate(4 242.8)">
<title>dependencies</title>
<polygon fill="white" stroke="transparent" points="-4,4 -4,-242.8 3776,-242.8 3776,4 -4,4"/>
<text text-anchor="middle" x="1886" y="-8.2" font-family="sans-serif" font-size="14.00">dependencies</text>
<g id="clust1" class="cluster">
<title>cluster_AppModule</title>
<polygon fill="none" stroke="black" stroke-dasharray="1,5" points="8,-32.8 8,-230.8 3764,-230.8 3764,-32.8 8,-32.8"/>
</g>
<g id="clust28" class="cluster">
<title>cluster_AppModule_providers</title>
<polygon fill="none" stroke="black" points="3562,-40.8 3562,-92.8 3756,-92.8 3756,-40.8 3562,-40.8"/>
</g>
<g id="clust25" class="cluster">
<title>cluster_AppModule_imports</title>
<polygon fill="none" stroke="black" points="3278,-40.8 3278,-92.8 3554,-92.8 3554,-40.8 3278,-40.8"/>
</g>
<g id="clust27" class="cluster">
<title>cluster_AppModule_bootstrap</title>
<polygon fill="none" stroke="black" points="1864,-170.8 1864,-222.8 1988,-222.8 1988,-170.8 1864,-170.8"/>
</g>
<g id="clust2" class="cluster">
<title>cluster_AppModule_declarations</title>
<polygon fill="none" stroke="black" points="16,-40.8 16,-92.8 3270,-92.8 3270,-40.8 16,-40.8"/>
</g>
<!-- AccountButtonComponent -->
<g id="node1" class="node">
<title>AccountButtonComponent</title>
<polygon fill="#ffffb3" stroke="black" points="3262.38,-84.8 3095.62,-84.8 3095.62,-48.8 3262.38,-48.8 3262.38,-84.8"/>
<text text-anchor="middle" x="3179" y="-62.6" font-family="Times,serif" font-size="14.00">AccountButtonComponent</text>
</g>
<!-- AppModule -->
<g id="node23" class="node">
<title>AppModule</title>
<polygon fill="#8dd3c7" stroke="black" points="1967.66,-149.8 1964.66,-153.8 1943.66,-153.8 1940.66,-149.8 1884.34,-149.8 1884.34,-113.8 1967.66,-113.8 1967.66,-149.8"/>
<text text-anchor="middle" x="1926" y="-127.6" font-family="Times,serif" font-size="14.00">AppModule</text>
</g>
<!-- AccountButtonComponent&#45;&gt;AppModule -->
<g id="edge1" class="edge">
<title>AccountButtonComponent&#45;&gt;AppModule</title>
<path fill="none" stroke="black" d="M3179,-84.97C3179,-106.3 3179,-138.8 3179,-138.8 3179,-138.8 1977.69,-138.8 1977.69,-138.8"/>
<polygon fill="black" stroke="black" points="1977.69,-135.3 1967.69,-138.8 1977.69,-142.3 1977.69,-135.3"/>
</g>
<!-- AppComponent -->
<g id="node2" class="node">
<title>AppComponent</title>
<polygon fill="#ffffb3" stroke="black" points="3077.94,-84.8 2972.06,-84.8 2972.06,-48.8 3077.94,-48.8 3077.94,-84.8"/>
<text text-anchor="middle" x="3025" y="-62.6" font-family="Times,serif" font-size="14.00">AppComponent</text>
</g>
<!-- AppComponent&#45;&gt;AppModule -->
<g id="edge2" class="edge">
<title>AppComponent&#45;&gt;AppModule</title>
<path fill="none" stroke="black" d="M3025,-84.83C3025,-105.57 3025,-136.8 3025,-136.8 3025,-136.8 1977.74,-136.8 1977.74,-136.8"/>
<polygon fill="black" stroke="black" points="1977.74,-133.3 1967.74,-136.8 1977.74,-140.3 1977.74,-133.3"/>
</g>
<!-- CurvedElementComponent -->
<g id="node3" class="node">
<title>CurvedElementComponent</title>
<polygon fill="#ffffb3" stroke="black" points="2954.69,-84.8 2785.31,-84.8 2785.31,-48.8 2954.69,-48.8 2954.69,-84.8"/>
<text text-anchor="middle" x="2870" y="-62.6" font-family="Times,serif" font-size="14.00">CurvedElementComponent</text>
</g>
<!-- CurvedElementComponent&#45;&gt;AppModule -->
<g id="edge3" class="edge">
<title>CurvedElementComponent&#45;&gt;AppModule</title>
<path fill="none" stroke="black" d="M2898.2,-85.11C2898.2,-104.95 2898.2,-133.8 2898.2,-133.8 2898.2,-133.8 1977.77,-133.8 1977.77,-133.8"/>
<polygon fill="black" stroke="black" points="1977.77,-130.3 1967.77,-133.8 1977.77,-137.3 1977.77,-130.3"/>
</g>
<!-- CurvedElementComponent&#45;&gt;AppModule -->
<g id="edge4" class="edge">
<title>CurvedElementComponent&#45;&gt;AppModule</title>
<path fill="none" stroke="black" d="M2841.8,-84.97C2841.8,-103.89 2841.8,-130.8 2841.8,-130.8 2841.8,-130.8 1977.73,-130.8 1977.73,-130.8"/>
<polygon fill="black" stroke="black" points="1977.73,-127.3 1967.73,-130.8 1977.73,-134.3 1977.73,-127.3"/>
</g>
<!-- ErrorBannerComponent -->
<g id="node4" class="node">
<title>ErrorBannerComponent</title>
<polygon fill="#ffffb3" stroke="black" points="2767.8,-84.8 2616.2,-84.8 2616.2,-48.8 2767.8,-48.8 2767.8,-84.8"/>
<text text-anchor="middle" x="2692" y="-62.6" font-family="Times,serif" font-size="14.00">ErrorBannerComponent</text>
</g>
<!-- ErrorBannerComponent&#45;&gt;AppModule -->
<g id="edge5" class="edge">
<title>ErrorBannerComponent&#45;&gt;AppModule</title>
<path fill="none" stroke="black" d="M2692,-85.1C2692,-103.07 2692,-127.8 2692,-127.8 2692,-127.8 1977.73,-127.8 1977.73,-127.8"/>
<polygon fill="black" stroke="black" points="1977.73,-124.3 1967.73,-127.8 1977.73,-131.3 1977.73,-124.3"/>
</g>
<!-- FooterComponent -->
<g id="node5" class="node">
<title>FooterComponent</title>
<polygon fill="#ffffb3" stroke="black" points="2597.88,-84.8 2480.12,-84.8 2480.12,-48.8 2597.88,-48.8 2597.88,-84.8"/>
<text text-anchor="middle" x="2539" y="-62.6" font-family="Times,serif" font-size="14.00">FooterComponent</text>
</g>
<!-- FooterComponent&#45;&gt;AppModule -->
<g id="edge6" class="edge">
<title>FooterComponent&#45;&gt;AppModule</title>
<path fill="none" stroke="black" d="M2539,-84.82C2539,-102.17 2539,-125.8 2539,-125.8 2539,-125.8 1978.13,-125.8 1978.13,-125.8"/>
<polygon fill="black" stroke="black" points="1978.13,-122.3 1968.13,-125.8 1978.13,-129.3 1978.13,-122.3"/>
</g>
<!-- HeaderComponent -->
<g id="node6" class="node">
<title>HeaderComponent</title>
<polygon fill="#ffffb3" stroke="black" points="2461.75,-84.8 2340.25,-84.8 2340.25,-48.8 2461.75,-48.8 2461.75,-84.8"/>
<text text-anchor="middle" x="2401" y="-62.6" font-family="Times,serif" font-size="14.00">HeaderComponent</text>
</g>
<!-- HeaderComponent&#45;&gt;AppModule -->
<g id="edge7" class="edge">
<title>HeaderComponent&#45;&gt;AppModule</title>
<path fill="none" stroke="black" d="M2401,-84.83C2401,-101.2 2401,-122.8 2401,-122.8 2401,-122.8 1977.74,-122.8 1977.74,-122.8"/>
<polygon fill="black" stroke="black" points="1977.74,-119.3 1967.74,-122.8 1977.74,-126.3 1977.74,-119.3"/>
</g>
<!-- HomeComponent -->
<g id="node7" class="node">
<title>HomeComponent</title>
<polygon fill="#ffffb3" stroke="black" points="2321.55,-84.8 2206.45,-84.8 2206.45,-48.8 2321.55,-48.8 2321.55,-84.8"/>
<text text-anchor="middle" x="2264" y="-62.6" font-family="Times,serif" font-size="14.00">HomeComponent</text>
</g>
<!-- HomeComponent&#45;&gt;AppModule -->
<g id="edge8" class="edge">
<title>HomeComponent&#45;&gt;AppModule</title>
<path fill="none" stroke="black" d="M2264,-85.04C2264,-100.37 2264,-119.8 2264,-119.8 2264,-119.8 1977.78,-119.8 1977.78,-119.8"/>
<polygon fill="black" stroke="black" points="1977.78,-116.3 1967.78,-119.8 1977.78,-123.3 1977.78,-116.3"/>
</g>
<!-- LayoutComponent -->
<g id="node8" class="node">
<title>LayoutComponent</title>
<polygon fill="#ffffb3" stroke="black" points="2188.49,-84.8 2067.51,-84.8 2067.51,-48.8 2188.49,-48.8 2188.49,-84.8"/>
<text text-anchor="middle" x="2128" y="-62.6" font-family="Times,serif" font-size="14.00">LayoutComponent</text>
</g>
<!-- LayoutComponent&#45;&gt;AppModule -->
<g id="edge9" class="edge">
<title>LayoutComponent&#45;&gt;AppModule</title>
<path fill="none" stroke="black" d="M2128,-84.85C2128,-99.17 2128,-116.8 2128,-116.8 2128,-116.8 1977.85,-116.8 1977.85,-116.8"/>
<polygon fill="black" stroke="black" points="1977.85,-113.3 1967.85,-116.8 1977.85,-120.3 1977.85,-113.3"/>
</g>
<!-- LoginComponent -->
<g id="node9" class="node">
<title>LoginComponent</title>
<polygon fill="#ffffb3" stroke="black" points="2049.27,-84.8 1934.73,-84.8 1934.73,-48.8 2049.27,-48.8 2049.27,-84.8"/>
<text text-anchor="middle" x="1992" y="-62.6" font-family="Times,serif" font-size="14.00">LoginComponent</text>
</g>
<!-- LoginComponent&#45;&gt;AppModule -->
<g id="edge10" class="edge">
<title>LoginComponent&#45;&gt;AppModule</title>
<path fill="none" stroke="black" d="M1951.22,-84.91C1951.22,-84.91 1951.22,-103.79 1951.22,-103.79"/>
<polygon fill="black" stroke="black" points="1947.72,-103.79 1951.22,-113.79 1954.72,-103.79 1947.72,-103.79"/>
</g>
<!-- MenuComponent -->
<g id="node10" class="node">
<title>MenuComponent</title>
<polygon fill="#ffffb3" stroke="black" points="1916.99,-84.8 1803.01,-84.8 1803.01,-48.8 1916.99,-48.8 1916.99,-84.8"/>
<text text-anchor="middle" x="1860" y="-62.6" font-family="Times,serif" font-size="14.00">MenuComponent</text>
</g>
<!-- MenuComponent&#45;&gt;AppModule -->
<g id="edge11" class="edge">
<title>MenuComponent&#45;&gt;AppModule</title>
<path fill="none" stroke="black" d="M1900.58,-84.91C1900.58,-84.91 1900.58,-103.79 1900.58,-103.79"/>
<polygon fill="black" stroke="black" points="1897.08,-103.79 1900.58,-113.79 1904.08,-103.79 1897.08,-103.79"/>
</g>
<!-- MenuItemComponent -->
<g id="node11" class="node">
<title>MenuItemComponent</title>
<polygon fill="#ffffb3" stroke="black" points="1784.65,-84.8 1645.35,-84.8 1645.35,-48.8 1784.65,-48.8 1784.65,-84.8"/>
<text text-anchor="middle" x="1715" y="-62.6" font-family="Times,serif" font-size="14.00">MenuItemComponent</text>
</g>
<!-- MenuItemComponent&#45;&gt;AppModule -->
<g id="edge12" class="edge">
<title>MenuItemComponent&#45;&gt;AppModule</title>
<path fill="none" stroke="black" d="M1715,-84.85C1715,-99.17 1715,-116.8 1715,-116.8 1715,-116.8 1874.31,-116.8 1874.31,-116.8"/>
<polygon fill="black" stroke="black" points="1874.31,-120.3 1884.31,-116.8 1874.31,-113.3 1874.31,-120.3"/>
</g>
<!-- NotFoundComponent -->
<g id="node12" class="node">
<title>NotFoundComponent</title>
<polygon fill="#ffffb3" stroke="black" points="1627.12,-84.8 1488.88,-84.8 1488.88,-48.8 1627.12,-48.8 1627.12,-84.8"/>
<text text-anchor="middle" x="1558" y="-62.6" font-family="Times,serif" font-size="14.00">NotFoundComponent</text>
</g>
<!-- NotFoundComponent&#45;&gt;AppModule -->
<g id="edge13" class="edge">
<title>NotFoundComponent&#45;&gt;AppModule</title>
<path fill="none" stroke="black" d="M1558,-85.04C1558,-100.37 1558,-119.8 1558,-119.8 1558,-119.8 1874.14,-119.8 1874.14,-119.8"/>
<polygon fill="black" stroke="black" points="1874.14,-123.3 1884.14,-119.8 1874.14,-116.3 1874.14,-123.3"/>
</g>
<!-- SignInButtonComponent -->
<g id="node13" class="node">
<title>SignInButtonComponent</title>
<polygon fill="#ffffb3" stroke="black" points="1471.29,-84.8 1314.71,-84.8 1314.71,-48.8 1471.29,-48.8 1471.29,-84.8"/>
<text text-anchor="middle" x="1393" y="-62.6" font-family="Times,serif" font-size="14.00">SignInButtonComponent</text>
</g>
<!-- SignInButtonComponent&#45;&gt;AppModule -->
<g id="edge14" class="edge">
<title>SignInButtonComponent&#45;&gt;AppModule</title>
<path fill="none" stroke="black" d="M1393,-84.83C1393,-101.2 1393,-122.8 1393,-122.8 1393,-122.8 1874.18,-122.8 1874.18,-122.8"/>
<polygon fill="black" stroke="black" points="1874.18,-126.3 1884.18,-122.8 1874.18,-119.3 1874.18,-126.3"/>
</g>
<!-- SignInComponent -->
<g id="node14" class="node">
<title>SignInComponent</title>
<polygon fill="#ffffb3" stroke="black" points="1296.17,-84.8 1177.83,-84.8 1177.83,-48.8 1296.17,-48.8 1296.17,-84.8"/>
<text text-anchor="middle" x="1237" y="-62.6" font-family="Times,serif" font-size="14.00">SignInComponent</text>
</g>
<!-- SignInComponent&#45;&gt;AppModule -->
<g id="edge15" class="edge">
<title>SignInComponent&#45;&gt;AppModule</title>
<path fill="none" stroke="black" d="M1237,-84.82C1237,-102.17 1237,-125.8 1237,-125.8 1237,-125.8 1874.19,-125.8 1874.19,-125.8"/>
<polygon fill="black" stroke="black" points="1874.19,-129.3 1884.19,-125.8 1874.19,-122.3 1874.19,-129.3"/>
</g>
<!-- SignUpComponent -->
<g id="node15" class="node">
<title>SignUpComponent</title>
<polygon fill="#ffffb3" stroke="black" points="1160.12,-84.8 1035.88,-84.8 1035.88,-48.8 1160.12,-48.8 1160.12,-84.8"/>
<text text-anchor="middle" x="1098" y="-62.6" font-family="Times,serif" font-size="14.00">SignUpComponent</text>
</g>
<!-- SignUpComponent&#45;&gt;AppModule -->
<g id="edge16" class="edge">
<title>SignUpComponent&#45;&gt;AppModule</title>
<path fill="none" stroke="black" d="M1098,-85.1C1098,-103.07 1098,-127.8 1098,-127.8 1098,-127.8 1874.09,-127.8 1874.09,-127.8"/>
<polygon fill="black" stroke="black" points="1874.09,-131.3 1884.09,-127.8 1874.09,-124.3 1874.09,-131.3"/>
</g>
<!-- SignupComponent -->
<g id="node16" class="node">
<title>SignupComponent</title>
<polygon fill="#ffffb3" stroke="black" points="1017.51,-84.8 896.49,-84.8 896.49,-48.8 1017.51,-48.8 1017.51,-84.8"/>
<text text-anchor="middle" x="957" y="-62.6" font-family="Times,serif" font-size="14.00">SignupComponent</text>
</g>
<!-- SignupComponent&#45;&gt;AppModule -->
<g id="edge17" class="edge">
<title>SignupComponent&#45;&gt;AppModule</title>
<path fill="none" stroke="black" d="M957,-84.97C957,-103.89 957,-130.8 957,-130.8 957,-130.8 1874.05,-130.8 1874.05,-130.8"/>
<polygon fill="black" stroke="black" points="1874.05,-134.3 1884.05,-130.8 1874.05,-127.3 1874.05,-134.3"/>
</g>
<!-- ToolFilterComponent -->
<g id="node17" class="node">
<title>ToolFilterComponent</title>
<polygon fill="#ffffb3" stroke="black" points="878.1,-84.8 739.9,-84.8 739.9,-48.8 878.1,-48.8 878.1,-84.8"/>
<text text-anchor="middle" x="809" y="-62.6" font-family="Times,serif" font-size="14.00">ToolFilterComponent</text>
</g>
<!-- ToolFilterComponent&#45;&gt;AppModule -->
<g id="edge18" class="edge">
<title>ToolFilterComponent&#45;&gt;AppModule</title>
<path fill="none" stroke="black" d="M809,-85.11C809,-104.95 809,-133.8 809,-133.8 809,-133.8 1874.25,-133.8 1874.25,-133.8"/>
<polygon fill="black" stroke="black" points="1874.25,-137.3 1884.25,-133.8 1874.25,-130.3 1874.25,-137.3"/>
</g>
<!-- ToolItemComponent -->
<g id="node18" class="node">
<title>ToolItemComponent</title>
<polygon fill="#ffffb3" stroke="black" points="721.93,-84.8 588.07,-84.8 588.07,-48.8 721.93,-48.8 721.93,-84.8"/>
<text text-anchor="middle" x="655" y="-62.6" font-family="Times,serif" font-size="14.00">ToolItemComponent</text>
</g>
<!-- ToolItemComponent&#45;&gt;AppModule -->
<g id="edge19" class="edge">
<title>ToolItemComponent&#45;&gt;AppModule</title>
<path fill="none" stroke="black" d="M655,-84.83C655,-105.57 655,-136.8 655,-136.8 655,-136.8 1874.07,-136.8 1874.07,-136.8"/>
<polygon fill="black" stroke="black" points="1874.07,-140.3 1884.07,-136.8 1874.07,-133.3 1874.07,-140.3"/>
</g>
<!-- ToolListComponent -->
<g id="node19" class="node">
<title>ToolListComponent</title>
<polygon fill="#ffffb3" stroke="black" points="570.55,-84.8 441.45,-84.8 441.45,-48.8 570.55,-48.8 570.55,-84.8"/>
<text text-anchor="middle" x="506" y="-62.6" font-family="Times,serif" font-size="14.00">ToolListComponent</text>
</g>
<!-- ToolListComponent&#45;&gt;AppModule -->
<g id="edge20" class="edge">
<title>ToolListComponent&#45;&gt;AppModule</title>
<path fill="none" stroke="black" d="M506,-84.97C506,-106.3 506,-138.8 506,-138.8 506,-138.8 1874.27,-138.8 1874.27,-138.8"/>
<polygon fill="black" stroke="black" points="1874.27,-142.3 1884.27,-138.8 1874.27,-135.3 1874.27,-142.3"/>
</g>
<!-- ToolsComponent -->
<g id="node20" class="node">
<title>ToolsComponent</title>
<polygon fill="#ffffb3" stroke="black" points="423.72,-84.8 310.28,-84.8 310.28,-48.8 423.72,-48.8 423.72,-84.8"/>
<text text-anchor="middle" x="367" y="-62.6" font-family="Times,serif" font-size="14.00">ToolsComponent</text>
</g>
<!-- ToolsComponent&#45;&gt;AppModule -->
<g id="edge21" class="edge">
<title>ToolsComponent&#45;&gt;AppModule</title>
<path fill="none" stroke="black" d="M367,-84.96C367,-107.15 367,-141.8 367,-141.8 367,-141.8 1874.3,-141.8 1874.3,-141.8"/>
<polygon fill="black" stroke="black" points="1874.3,-145.3 1884.3,-141.8 1874.3,-138.3 1874.3,-145.3"/>
</g>
<!-- UserInputComponent -->
<g id="node21" class="node">
<title>UserInputComponent</title>
<polygon fill="#ffffb3" stroke="black" points="292.82,-84.8 155.18,-84.8 155.18,-48.8 292.82,-48.8 292.82,-84.8"/>
<text text-anchor="middle" x="224" y="-62.6" font-family="Times,serif" font-size="14.00">UserInputComponent</text>
</g>
<!-- UserInputComponent&#45;&gt;AppModule -->
<g id="edge22" class="edge">
<title>UserInputComponent&#45;&gt;AppModule</title>
<path fill="none" stroke="black" d="M224,-84.89C224,-107.93 224,-144.8 224,-144.8 224,-144.8 1873.93,-144.8 1873.93,-144.8"/>
<polygon fill="black" stroke="black" points="1873.93,-148.3 1883.93,-144.8 1873.93,-141.3 1873.93,-148.3"/>
</g>
<!-- UsersComponent -->
<g id="node22" class="node">
<title>UsersComponent</title>
<polygon fill="#ffffb3" stroke="black" points="137.71,-84.8 24.29,-84.8 24.29,-48.8 137.71,-48.8 137.71,-84.8"/>
<text text-anchor="middle" x="81" y="-62.6" font-family="Times,serif" font-size="14.00">UsersComponent</text>
</g>
<!-- UsersComponent&#45;&gt;AppModule -->
<g id="edge23" class="edge">
<title>UsersComponent&#45;&gt;AppModule</title>
<path fill="none" stroke="black" d="M81,-85.18C81,-109.08 81,-147.8 81,-147.8 81,-147.8 1874,-147.8 1874,-147.8"/>
<polygon fill="black" stroke="black" points="1874,-151.3 1884,-147.8 1874,-144.3 1874,-151.3"/>
</g>
<!-- AppComponent  -->
<g id="node26" class="node">
<title>AppComponent </title>
<polygon fill="#80b1d3" stroke="black" points="1980.44,-214.8 1871.56,-214.8 1871.56,-178.8 1980.44,-178.8 1980.44,-214.8"/>
<text text-anchor="middle" x="1926" y="-192.6" font-family="Times,serif" font-size="14.00">AppComponent </text>
</g>
<!-- AppModule&#45;&gt;AppComponent  -->
<g id="edge26" class="edge">
<title>AppModule&#45;&gt;AppComponent </title>
<path fill="none" stroke="black" stroke-dasharray="1,5" d="M1926,-149.91C1926,-149.91 1926,-168.79 1926,-168.79"/>
<polygon fill="black" stroke="black" points="1922.5,-168.79 1926,-178.79 1929.5,-168.79 1922.5,-168.79"/>
</g>
<!-- AppRoutingModule -->
<g id="node24" class="node">
<title>AppRoutingModule</title>
<polygon fill="#8dd3c7" stroke="black" points="3546.28,-84.8 3543.28,-88.8 3522.28,-88.8 3519.28,-84.8 3417.72,-84.8 3417.72,-48.8 3546.28,-48.8 3546.28,-84.8"/>
<text text-anchor="middle" x="3482" y="-62.6" font-family="Times,serif" font-size="14.00">AppRoutingModule</text>
</g>
<!-- AppRoutingModule&#45;&gt;AppModule -->
<g id="edge24" class="edge">
<title>AppRoutingModule&#45;&gt;AppModule</title>
<path fill="none" stroke="black" d="M3482,-84.89C3482,-107.93 3482,-144.8 3482,-144.8 3482,-144.8 1978.02,-144.8 1978.02,-144.8"/>
<polygon fill="black" stroke="black" points="1978.02,-141.3 1968.02,-144.8 1978.02,-148.3 1978.02,-141.3"/>
</g>
<!-- GraphQLModule -->
<g id="node25" class="node">
<title>GraphQLModule</title>
<polygon fill="#8dd3c7" stroke="black" points="3399.7,-84.8 3396.7,-88.8 3375.7,-88.8 3372.7,-84.8 3286.3,-84.8 3286.3,-48.8 3399.7,-48.8 3399.7,-84.8"/>
<text text-anchor="middle" x="3343" y="-62.6" font-family="Times,serif" font-size="14.00">GraphQLModule</text>
</g>
<!-- GraphQLModule&#45;&gt;AppModule -->
<g id="edge25" class="edge">
<title>GraphQLModule&#45;&gt;AppModule</title>
<path fill="none" stroke="black" d="M3343,-84.96C3343,-107.15 3343,-141.8 3343,-141.8 3343,-141.8 1978.02,-141.8 1978.02,-141.8"/>
<polygon fill="black" stroke="black" points="1978.02,-138.3 1968.02,-141.8 1978.02,-145.3 1978.02,-138.3"/>
</g>
<!-- UserContextService -->
<g id="node27" class="node">
<title>UserContextService</title>
<ellipse fill="#fdb462" stroke="black" cx="3659" cy="-66.8" rx="88.61" ry="18"/>
<text text-anchor="middle" x="3659" y="-62.6" font-family="Times,serif" font-size="14.00">UserContextService</text>
</g>
<!-- UserContextService&#45;&gt;AppModule -->
<g id="edge27" class="edge">
<title>UserContextService&#45;&gt;AppModule</title>
<path fill="none" stroke="black" d="M3659,-85.18C3659,-109.08 3659,-147.8 3659,-147.8 3659,-147.8 1977.98,-147.8 1977.98,-147.8"/>
<polygon fill="black" stroke="black" points="1977.98,-144.3 1967.98,-147.8 1977.98,-151.3 1977.98,-144.3"/>
</g>
</g>
</svg>
